<?xml version="1.0" standalone="no"?>
<!DOCTYPE svg PUBLIC "-//W3C//DTD SVG 20010904//EN"
 "http://www.w3.org/TR/2001/REC-SVG-20010904/DTD/svg10.dtd">
<svg version="1.0" xmlns="http://www.w3.org/2000/svg"
 width="512.000000pt" height="512.000000pt" viewBox="0 0 512.000000 512.000000"
 preserveAspectRatio="xMidYMid meet">
<metadata>
Created by potrace 1.14, written by Peter Selinger 2001-2017
</metadata>
<g transform="translate(0.000000,512.000000) scale(0.100000,-0.100000)"
fill="#000000" stroke="none">
<path d="M3330 5104 c-132 -28 -298 -138 -359 -238 -16 -26 -31 -35 -73 -45
-103 -23 -180 -88 -224 -188 -24 -53 -24 -53 -68 -53 -104 0 -217 -75 -267
-177 -19 -39 -24 -64 -24 -133 0 -73 4 -92 27 -136 15 -28 50 -72 78 -97 91
-82 43 -78 941 -75 l794 3 41 22 c190 102 238 333 101 489 -46 52 -142 104
-193 104 -30 0 -32 2 -43 58 -43 221 -242 419 -468 467 -84 18 -178 18 -263
-1z m291 -164 c128 -47 241 -162 278 -283 10 -34 17 -65 14 -69 -2 -5 -60 -8
-128 -8 -122 0 -124 0 -144 -26 -12 -15 -21 -33 -21 -40 0 -22 22 -63 39 -71
9 -4 117 -10 241 -13 215 -5 226 -6 258 -28 68 -49 86 -150 39 -221 -50 -75
-4 -71 -860 -71 l-764 0 -33 23 c-57 38 -75 71 -75 137 0 66 18 99 75 138 27
18 47 22 111 22 116 0 137 15 153 109 14 77 88 141 165 141 47 0 66 14 110 79
68 99 157 163 274 196 69 20 195 13 268 -15z"/>
<path d="M1390 4330 c-59 -59 14 -154 89 -116 46 24 54 67 20 110 -26 33 -79
36 -109 6z"/>
<path d="M1681 4324 c-34 -43 -26 -86 20 -110 53 -27 109 7 109 66 0 66 -89
95 -129 44z"/>
<path d="M1971 4324 c-24 -30 -26 -43 -10 -78 34 -73 139 -44 139 38 0 63 -89
90 -129 40z"/>
<path d="M4590 4330 c-44 -44 -12 -123 50 -123 67 0 99 75 53 126 -22 23 -78
22 -103 -3z"/>
<path d="M4893 4335 c-29 -20 -37 -59 -19 -94 24 -46 67 -54 110 -20 72 57
-15 167 -91 114z"/>
<path d="M1396 4057 c-33 -33 -34 -76 -3 -105 33 -31 80 -29 106 4 39 50 16
108 -46 120 -26 5 -37 1 -57 -19z"/>
<path d="M4893 4035 c-29 -20 -37 -59 -19 -94 24 -46 67 -54 110 -20 72 57
-15 167 -91 114z"/>
<path d="M1395 3775 c-47 -46 -17 -125 49 -125 34 0 76 41 76 75 0 33 -42 75
-75 75 -14 0 -37 -11 -50 -25z"/>
<path d="M4893 3735 c-29 -20 -37 -59 -19 -94 24 -46 67 -54 110 -20 72 57
-15 167 -91 114z"/>
<path d="M2700 3385 c-159 -59 -176 -63 -185 -48 -24 41 -74 82 -114 93 -30 8
-113 10 -270 6 -124 -3 -246 -5 -271 -4 -25 1 -153 2 -285 2 -223 1 -242 0
-274 -19 -49 -29 -73 -67 -79 -124 l-5 -51 -243 0 c-264 0 -328 -8 -375 -47
-54 -46 -63 -75 -67 -223 -4 -151 3 -182 48 -208 l30 -17 0 -96 c0 -96 0 -97
-26 -103 -55 -14 -54 10 -54 -1045 l0 -969 -172 -4 c-188 -3 -212 -10 -236
-64 -18 -37 -15 -192 4 -248 22 -64 101 -148 172 -183 l57 -28 2140 0 2140 0
67 33 c76 37 120 83 157 162 21 46 25 70 26 150 0 164 -23 180 -265 180 l-160
0 0 1275 c0 1384 3 1314 -53 1373 -55 59 -28 57 -692 60 l-611 3 -23 69 c-23
67 -52 105 -98 129 -44 23 -106 11 -283 -54z m-910 -215 l0 -110 -210 0 -210
0 0 110 0 110 210 0 210 0 0 -110z m1295 -313 c15 -43 26 -80 24 -82 -6 -5
-392 -145 -394 -142 -14 20 -57 171 -50 174 127 50 382 139 386 134 3 -3 18
-41 34 -84z m-1295 -42 l0 -95 -210 0 -210 0 0 95 0 95 210 0 210 0 0 -95z
m580 0 l0 -95 -210 0 -210 0 0 95 0 95 210 0 210 0 0 -95z m-1150 -821 c0
-896 -4 -843 75 -890 l43 -25 258 5 c143 2 270 4 284 3 14 0 142 -1 285 -1
257 -1 260 -1 293 22 70 51 66 5 72 829 l5 742 275 -757 c172 -472 284 -767
299 -785 31 -37 72 -57 116 -57 41 0 446 143 488 172 36 26 60 74 61 123 0 28
-74 243 -247 718 -136 372 -247 682 -247 687 0 6 130 10 365 10 l365 0 0 -975
0 -975 -1515 0 -1515 0 0 975 0 975 120 0 120 0 0 -796z m570 266 l0 -310
-210 0 -210 0 0 310 0 310 210 0 210 0 0 -310z m1673 -444 c16 -43 25 -81 20
-86 -11 -10 -383 -144 -387 -139 -12 15 -57 161 -52 167 12 11 370 141 381
138 6 -1 23 -38 38 -80z m-1673 -116 l0 -90 -210 0 -210 0 0 90 0 90 210 0
210 0 0 -90z m580 0 l0 -90 -210 0 -210 0 0 90 0 90 210 0 210 0 0 -90z m-580
-355 l0 -115 -210 0 -210 0 0 115 0 115 210 0 210 0 0 -115z m810 -898 c0 -13
6 -32 14 -43 14 -19 40 -19 1068 -24 l1053 -5 -2 -48 c-4 -78 -42 -131 -115
-162 -33 -13 -263 -15 -2125 -15 -2009 0 -2090 1 -2128 19 -72 33 -105 86
-105 167 l0 44 1048 0 c986 0 1050 1 1065 18 8 9 19 29 22 45 l7 27 99 0 c97
0 99 -1 99 -23z"/>
<path d="M4893 3435 c-29 -20 -37 -59 -19 -94 24 -46 67 -54 110 -20 72 57
-15 167 -91 114z"/>
<path d="M4893 3135 c-29 -20 -37 -59 -19 -94 24 -46 67 -54 110 -20 72 57
-15 167 -91 114z"/>
<path d="M4893 2835 c-29 -20 -37 -59 -19 -94 24 -46 67 -54 110 -20 72 57
-15 167 -91 114z"/>
<path d="M4893 2535 c-29 -20 -37 -59 -19 -94 24 -46 67 -54 110 -20 72 57
-15 167 -91 114z"/>
<path d="M4893 2235 c-29 -20 -37 -59 -19 -94 24 -46 67 -54 110 -20 72 57
-15 167 -91 114z"/>
<path d="M4893 1935 c-29 -20 -37 -59 -19 -94 24 -46 67 -54 110 -20 72 57
-15 167 -91 114z"/>
<path d="M4612 1897 c-37 -39 -28 -88 20 -113 25 -13 35 -13 59 -3 52 21 63
68 28 113 -27 34 -77 36 -107 3z"/>
</g>
</svg>
